<?xml version="1.0" encoding="UTF-8"?>
<svg xmlns="http://www.w3.org/2000/svg" xmlns:xlink="http://www.w3.org/1999/xlink" width="32px" height="32px" viewBox="0 0 32 32" version="1.1">
<defs>
<linearGradient id="linear0" gradientUnits="userSpaceOnUse" x1="215.91" y1="116.983" x2="30.5962" y2="116.983" gradientTransform="matrix(0.124031,0,0,0.130559,0,0.202366)">
<stop offset="0" style="stop-color:rgb(20.392157%,63.137255%,85.490196%);stop-opacity:0.251965;"/>
<stop offset="1" style="stop-color:rgb(40%,42.352941%,100%);stop-opacity:0.352357;"/>
</linearGradient>
<linearGradient id="linear1" gradientUnits="userSpaceOnUse" x1="182.972" y1="51.7131" x2="72.025" y2="190.198" gradientTransform="matrix(0.124031,0,0,0.130559,0,0.202366)">
<stop offset="0" style="stop-color:rgb(61.960784%,67.058824%,100%);stop-opacity:0.6;"/>
<stop offset="0.274397" style="stop-color:rgb(68.235294%,78.431373%,92.941176%);stop-opacity:0.701961;"/>
<stop offset="1" style="stop-color:rgb(43.921569%,92.941176%,98.431373%);stop-opacity:0.901961;"/>
</linearGradient>
<linearGradient id="linear2" gradientUnits="userSpaceOnUse" x1="79.0071" y1="56.8846" x2="194.858" y2="191.294" gradientTransform="matrix(0.124031,0,0,0.130559,0,0.202366)">
<stop offset="0" style="stop-color:rgb(61.960784%,67.058824%,100%);stop-opacity:0.6;"/>
<stop offset="0.274397" style="stop-color:rgb(68.235294%,78.431373%,92.941176%);stop-opacity:0.701961;"/>
<stop offset="1" style="stop-color:rgb(43.921569%,92.941176%,98.431373%);stop-opacity:0.901961;"/>
</linearGradient>
<linearGradient id="linear3" gradientUnits="userSpaceOnUse" x1="193.009" y1="154.55" x2="38.4395" y2="67.3968" gradientTransform="matrix(0.124031,0,0,0.130559,0,0.202366)">
<stop offset="0" style="stop-color:rgb(61.960784%,67.058824%,100%);stop-opacity:0.48;"/>
<stop offset="0.274397" style="stop-color:rgb(68.235294%,78.431373%,92.941176%);stop-opacity:0.561569;"/>
<stop offset="1" style="stop-color:rgb(43.921569%,92.941176%,98.431373%);stop-opacity:0.721569;"/>
</linearGradient>
<linearGradient id="linear4" gradientUnits="userSpaceOnUse" x1="126.253" y1="198.64" x2="126.253" y2="13.3262" gradientTransform="matrix(0.124031,0,0,0.130559,0,0.202366)">
<stop offset="0" style="stop-color:rgb(20.392157%,63.137255%,85.490196%);stop-opacity:0.452749;"/>
<stop offset="1" style="stop-color:rgb(40%,42.352941%,100%);stop-opacity:0.633141;"/>
</linearGradient>
</defs>
<g id="surface1">
<path style=" stroke:none;fill-rule:nonzero;fill:url(#linear0);" d="M 18.617188 5.199219 C 11.421875 4.363281 3.796875 10.355469 3.796875 14.207031 C 3.695312 17.855469 13.097656 29.089844 17.8125 24.914062 C 22.523438 20.734375 26.226562 15.910156 26.410156 13.429688 C 26.699219 11.429688 25.8125 6.035156 18.617188 5.199219 Z M 18.617188 5.199219 "/>
<path style=" stroke:none;fill-rule:nonzero;fill:url(#linear1);" d="M 9.960938 7.4375 C 5.542969 13.472656 5.328125 22.640625 8.34375 24.820312 C 12.117188 27.542969 26.53125 23.917969 25.925781 17.460938 C 25.320312 11.007812 21.921875 6.734375 20.085938 5.171875 C 18.679688 3.785156 14.664062 1.019531 9.960938 7.4375 Z M 9.960938 7.4375 "/>
<path style=" stroke:none;fill-rule:nonzero;fill:url(#linear2);" d="M 7.921875 20.894531 C 12.75 26.570312 21.273438 28.46875 23.863281 25.746094 C 27.09375 22.34375 26.34375 6.761719 20.207031 6.207031 C 14.066406 5.652344 9.453125 8.386719 7.65625 10.003906 C 6.105469 11.203125 2.785156 14.851562 7.921875 20.894531 Z M 7.921875 20.894531 "/>
<path style=" stroke:none;fill-rule:nonzero;fill:url(#linear3);" d="M 22.671875 7.230469 C 16.300781 3.613281 6.429688 4.871094 4.875 8.355469 C 2.929688 12.714844 8.652344 27.101562 14.609375 25.433594 C 20.5625 23.761719 25.261719 19.542969 26.429688 17.382812 C 27.5 15.699219 29.449219 11.082031 22.671875 7.230469 Z M 22.671875 7.230469 "/>
<path style=" stroke:none;fill-rule:nonzero;fill:url(#linear4);" d="M 25.421875 17.542969 C 26.214844 9.972656 20.523438 1.941406 16.863281 1.941406 C 13.398438 1.839844 2.722656 14.347656 6.691406 19.308594 C 10.664062 24.269531 16.367188 25.902344 18.722656 26.097656 C 20.625 26.402344 24.628906 25.117188 25.421875 17.542969 Z M 25.421875 17.542969 "/>
<path style=" stroke:none;fill-rule:nonzero;fill:rgb(100%,100%,100%);fill-opacity:1;" d="M 13.269531 9.472656 L 15.730469 9.472656 L 15.730469 20.882812 C 15.730469 20.882812 14.835938 20.824219 14.164062 20.292969 C 13.496094 19.765625 13.269531 19 13.269531 19 Z M 13.269531 9.472656 "/>
<path style=" stroke:none;fill-rule:nonzero;fill:rgb(100%,100%,100%);fill-opacity:1;" d="M 13.269531 9.472656 L 13.269531 12.058594 L 21.09375 12.058594 C 21.09375 12.058594 21.039062 11.117188 20.546875 10.414062 C 20.054688 9.707031 19.34375 9.472656 19.34375 9.472656 Z M 13.269531 9.472656 "/>
<path style=" stroke:none;fill-rule:nonzero;fill:rgb(100%,100%,100%);fill-opacity:1;" d="M 13.269531 16.410156 L 13.269531 13.824219 L 19.304688 13.824219 C 19.304688 13.824219 19.25 14.765625 18.765625 15.46875 C 18.28125 16.175781 17.578125 16.410156 17.578125 16.410156 Z M 13.269531 16.410156 "/>
</g>
</svg>
